<?xml version="1.0" encoding="UTF-8" standalone="no"?>
<!-- Created with Inkscape (http://www.inkscape.org/) -->

<svg
   width="24mm"
   height="24mm"
   viewBox="0 0 24 24"
   version="1.1"
   id="svg1"
   inkscape:version="1.3 (0e150ed6c4, 2023-07-21)"
   sodipodi:docname="animation_enabled.svg"
   xmlns:inkscape="http://www.inkscape.org/namespaces/inkscape"
   xmlns:sodipodi="http://sodipodi.sourceforge.net/DTD/sodipodi-0.dtd"
   xmlns="http://www.w3.org/2000/svg"
   xmlns:svg="http://www.w3.org/2000/svg">
  <sodipodi:namedview
     id="namedview1"
     pagecolor="#505050"
     bordercolor="#ffffff"
     borderopacity="1"
     inkscape:showpageshadow="0"
     inkscape:pageopacity="0"
     inkscape:pagecheckerboard="1"
     inkscape:deskcolor="#505050"
     inkscape:document-units="mm"
     inkscape:zoom="5.6568543"
     inkscape:cx="48.525203"
     inkscape:cy="43.663844"
     inkscape:window-width="1920"
     inkscape:window-height="1018"
     inkscape:window-x="-6"
     inkscape:window-y="-6"
     inkscape:window-maximized="1"
     inkscape:current-layer="layer1"
     showguides="true">
    <sodipodi:guide
       position="43.965836,-3.735895"
       orientation="0,-1"
       id="guide3"
       inkscape:locked="false" />
  </sodipodi:namedview>
  <defs
     id="defs1" />
  <g
     inkscape:label="Layer 1"
     inkscape:groupmode="layer"
     id="layer1">
    <path
       id="path1"
       style="fill:#2d8ceb;fill-opacity:1;stroke-width:0.26575"
       d="m 8.0937581,0.3749583 v 1.5001668 h 3.2499299 l -1.85e-4,1.803331 C 9.2060933,3.8322969 7.1746345,4.6686841 5.5485086,6.064357 L 4.2488463,2.6123713 1.2226744,5.8188939 4.8834329,6.7283991 c -1.782379,1.8545338 -2.7816045,4.3245589 -2.7900106,6.8967369 5.19e-5,5.522774 4.4771319,9.999854 9.9999057,9.999906 5.522976,2.34e-4 10.000372,-4.47693 10.000424,-9.999906 -0.0013,-5.2310059 -4.033806,-9.5771351 -9.250082,-9.9694175 l 1.85e-4,-1.7805934 h 3.249931 V 0.3749583 Z m 3.9995699,5.250149 c 1.900865,5.98e-5 3.739598,0.6769672 5.186764,1.9094442 l -6.221843,6.2068565 1.128614,1.220081 6.238895,-6.2228767 c 1.080666,1.3997637 1.667088,3.1181417 1.667599,4.8865237 -2.7e-4,4.418099 -3.58193,7.999528 -8.000029,7.999512 -4.4180981,1.5e-5 -7.9997582,-3.581414 -8.0000277,-7.999512 -1.57e-5,-4.4183003 3.5817279,-8.0000441 8.0000277,-8.0000287 z"
       sodipodi:nodetypes="ccccccccccccccccccccccccc" />
  </g>
</svg>
