<?xml version="1.0" encoding="UTF-8" standalone="no"?>
<!-- Created with Inkscape (http://www.inkscape.org/) -->

<svg
   width="24mm"
   height="24mm"
   viewBox="0 0 24 24"
   version="1.1"
   id="svg1"
   inkscape:version="1.3 (0e150ed6c4, 2023-07-21)"
   sodipodi:docname="animation_disabled.svg"
   xmlns:inkscape="http://www.inkscape.org/namespaces/inkscape"
   xmlns:sodipodi="http://sodipodi.sourceforge.net/DTD/sodipodi-0.dtd"
   xmlns="http://www.w3.org/2000/svg"
   xmlns:svg="http://www.w3.org/2000/svg">
  <sodipodi:namedview
     id="namedview1"
     pagecolor="#505050"
     bordercolor="#ffffff"
     borderopacity="1"
     inkscape:showpageshadow="0"
     inkscape:pageopacity="0"
     inkscape:pagecheckerboard="1"
     inkscape:deskcolor="#505050"
     inkscape:document-units="mm"
     inkscape:zoom="5.8582491"
     inkscape:cx="51.12449"
     inkscape:cy="37.212484"
     inkscape:window-width="1920"
     inkscape:window-height="1018"
     inkscape:window-x="-6"
     inkscape:window-y="-6"
     inkscape:window-maximized="1"
     inkscape:current-layer="layer1" />
  <defs
     id="defs1" />
  <g
     inkscape:label="Layer 1"
     inkscape:groupmode="layer"
     id="layer1">
    <path
       id="path1"
       style="fill:#b1b1b1;stroke-width:0.26575"
       d="M 11.999784,3.8127731 A 10,10 0 0 0 1.9998779,13.813196 10,10 0 0 0 11.999784,23.813102 10,10 0 0 0 22.000208,13.813196 10,10 0 0 0 11.999784,3.8127731 Z m 0,2.0003947 a 8,8 0 0 1 8.000029,8.0000282 8,8 0 0 1 -8.000029,7.999512 8,8 0 0 1 -8.0000281,-7.999512 8,8 0 0 1 8.0000281,-8.0000282 z" />
    <path
       style="fill:#b1b1b1;fill-opacity:1;stroke-width:0.264583"
       d="m 8,1.75 v -1.5 h 8 v 1.5 h -3.25 v 3.0847882 l -1.5,-0.043664 V 1.75 Z"
       id="path2"
       sodipodi:nodetypes="ccccccccc" />
    <path
       style="fill:#b1b1b1;fill-opacity:1;stroke-width:0.264583"
       d="M 1.1291058,6.0068431 4.1551095,2.8001825 5.7989866,7.1677256 Z"
       id="path3"
       sodipodi:nodetypes="cccc" />
  </g>
</svg>
