<?xml version="1.0" encoding="UTF-8" standalone="no"?>
<!-- Created with Inkscape (http://www.inkscape.org/) -->

<svg
   width="24"
   height="24"
   viewBox="0 0 24 24"
   version="1.1"
   id="svg1"
   inkscape:version="1.3 (0e150ed6c4, 2023-07-21)"
   sodipodi:docname="box_unckhecked.svg"
   xmlns:inkscape="http://www.inkscape.org/namespaces/inkscape"
   xmlns:sodipodi="http://sodipodi.sourceforge.net/DTD/sodipodi-0.dtd"
   xmlns="http://www.w3.org/2000/svg"
   xmlns:svg="http://www.w3.org/2000/svg">
  <sodipodi:namedview
     id="namedview1"
     pagecolor="#505050"
     bordercolor="#ffffff"
     borderopacity="1"
     inkscape:showpageshadow="0"
     inkscape:pageopacity="0"
     inkscape:pagecheckerboard="1"
     inkscape:deskcolor="#505050"
     inkscape:document-units="px"
     inkscape:zoom="25.6875"
     inkscape:cx="15.980535"
     inkscape:cy="12.885645"
     inkscape:window-width="1920"
     inkscape:window-height="1018"
     inkscape:window-x="-6"
     inkscape:window-y="-6"
     inkscape:window-maximized="1"
     inkscape:current-layer="layer1" />
  <defs
     id="defs1" />
  <g
     inkscape:label="Layer 1"
     inkscape:groupmode="layer"
     id="layer1">
    <path
       id="rect1"
       style="fill:#b1b1b1;fill-opacity:1;stroke-width:1.091"
       d="M 4.7109375 0 C 2.1013441 0 2.9155345e-17 2.1013441 0 4.7109375 L 0 19.289062 C 0 21.898656 2.1013441 24 4.7109375 24 L 19.289062 24 C 21.898656 24 24 21.898656 24 19.289062 L 24 4.7109375 C 24 2.1013441 21.898656 2.9155345e-17 19.289062 0 L 4.7109375 0 z M 4.3242188 3 L 19.675781 3 C 20.409055 3 21 3.5909445 21 4.3242188 L 21 19.675781 C 21 20.409055 20.409055 21 19.675781 21 L 4.3242188 21 C 3.5909445 21 3 20.409055 3 19.675781 L 3 4.3242188 C 3 3.5909445 3.5909445 3 4.3242188 3 z " />
  </g>
</svg>
