<?xml version="1.0" encoding="UTF-8" standalone="no"?>
<!-- Created with Inkscape (http://www.inkscape.org/) -->

<svg
   width="24"
   height="24"
   viewBox="0 0 24 24"
   version="1.1"
   id="svg1"
   inkscape:version="1.3 (0e150ed6c4, 2023-07-21)"
   sodipodi:docname="hor_size_cursor.svg"
   xmlns:inkscape="http://www.inkscape.org/namespaces/inkscape"
   xmlns:sodipodi="http://sodipodi.sourceforge.net/DTD/sodipodi-0.dtd"
   xmlns="http://www.w3.org/2000/svg"
   xmlns:svg="http://www.w3.org/2000/svg">
  <sodipodi:namedview
     id="namedview1"
     pagecolor="#505050"
     bordercolor="#ffffff"
     borderopacity="1"
     inkscape:showpageshadow="0"
     inkscape:pageopacity="0"
     inkscape:pagecheckerboard="1"
     inkscape:deskcolor="#505050"
     inkscape:document-units="px"
     inkscape:zoom="25.6875"
     inkscape:cx="15.980535"
     inkscape:cy="12.885645"
     inkscape:window-width="1920"
     inkscape:window-height="1018"
     inkscape:window-x="-6"
     inkscape:window-y="-6"
     inkscape:window-maximized="1"
     inkscape:current-layer="layer1" />
  <defs
     id="defs1" />
  <g
     inkscape:label="Layer 1"
     inkscape:groupmode="layer"
     id="layer1">
    <path
       id="rect1"
       style="fill:#ffffff;stroke-width:0.818893;fill-opacity:1"
       d="M 7.6568741 17.005573 L 4.6808673 19.926469 L -3.0242776 12.075944 L -0.12214819 9.2275574 L -0.12147705 9.155745 L -7.8999831 9.1548673 L -7.9001896 16.861561 L -4.9980602 14.013175 L 2.7070847 21.8637 L -0.12116729 24.639577 L -0.12183844 24.711389 L 7.6566676 24.712267 L 7.6568741 17.005573 z "
       transform="rotate(-45.535459)" />
    <path
       id="path4"
       style="fill:#1a1a1a;stroke-width:0.818893"
       sodipodi:type="inkscape:offset"
       inkscape:radius="-0.52002597"
       inkscape:original="M -7.9003906 9.1542969 L -7.9003906 16.861328 L -4.9980469 14.013672 L 2.7070312 21.863281 L -0.12109375 24.638672 L -0.12109375 24.710938 L 7.65625 24.712891 L 7.65625 17.005859 L 4.6816406 19.925781 L -3.0234375 12.076172 L -0.12304688 9.2285156 L -0.12109375 9.15625 L -7.9003906 9.1542969 z "
       d="M -7.3808594,9.6738281 V 15.625 l 2.0195313,-1.982422 a 0.52007797,0.52007797 0 0 1 0.734375,0.0059 l 7.7050781,7.849609 a 0.52007797,0.52007797 0 0 1 -0.00781,0.736328 l -1.9941406,1.957031 6.0605468,0.002 V 18.246094 L 5.046875,20.296875 a 0.52007797,0.52007797 0 0 1 -0.7363281,-0.0059 l -7.7050782,-7.84961 a 0.52007797,0.52007797 0 0 1 0.00586,-0.736328 l 2.0683594,-2.0292967 z"
       transform="rotate(-45.535459)" />
  </g>
</svg>
