<?xml version="1.0" encoding="UTF-8" standalone="no"?>
<!-- Created with Inkscape (http://www.inkscape.org/) -->

<svg
   width="24"
   height="24"
   viewBox="0 0 24 24"
   version="1.1"
   id="svg1"
   sodipodi:docname="lock.svg"
   inkscape:version="1.3 (0e150ed6c4, 2023-07-21)"
   xml:space="preserve"
   xmlns:inkscape="http://www.inkscape.org/namespaces/inkscape"
   xmlns:sodipodi="http://sodipodi.sourceforge.net/DTD/sodipodi-0.dtd"
   xmlns="http://www.w3.org/2000/svg"
   xmlns:svg="http://www.w3.org/2000/svg"><sodipodi:namedview
     id="namedview1"
     pagecolor="#505050"
     bordercolor="#ffffff"
     borderopacity="1"
     inkscape:showpageshadow="0"
     inkscape:pageopacity="0"
     inkscape:pagecheckerboard="1"
     inkscape:deskcolor="#505050"
     inkscape:document-units="px"
     inkscape:zoom="25.6875"
     inkscape:cx="10.686131"
     inkscape:cy="12.340633"
     inkscape:window-width="1920"
     inkscape:window-height="1018"
     inkscape:window-x="-6"
     inkscape:window-y="-6"
     inkscape:window-maximized="1"
     inkscape:current-layer="layer1" /><defs
     id="defs1" /><g
     inkscape:label="Layer 1"
     inkscape:groupmode="layer"
     id="layer1"><path
       id="rect3"
       style="fill:#b1b1b1;fill-opacity:1;stroke-width:1.12586"
       d="m 12.000001,2.3974295 a 7.4415151,7.4415151 0 0 0 -7.4415161,7.4415151 7.4415151,7.4415151 0 0 0 0.00363,0.039969 H 2.4037884 V 21.602571 H 21.596212 V 9.8789139 h -2.15833 a 7.4415151,7.4415151 0 0 0 0.0036,-0.039969 7.4415151,7.4415151 0 0 0 -7.441484,-7.4415153 z m 0,1.8603787 a 5.5811363,5.5811363 0 0 1 5.581135,5.5811364 5.5811363,5.5811363 0 0 1 -0.0036,0.039969 H 6.4224971 a 5.5811363,5.5811363 0 0 1 -0.00363,-0.039969 5.5811363,5.5811363 0 0 1 5.5811369,-5.5811364 z m 0,8.0119828 a 2.3254735,2.3254735 0 0 1 2.325472,2.325474 2.3254735,2.3254735 0 0 1 -1.395283,2.127446 v 2.683377 H 11.069811 V 16.722711 A 2.3254735,2.3254735 0 0 1 9.6745265,14.595265 2.3254735,2.3254735 0 0 1 12.000001,12.269791 Z" /></g></svg>
