<?xml version="1.0" encoding="UTF-8" standalone="no"?>
<svg
   viewBox="0 0 22 22"
   version="1.1"
   id="svg1"
   sodipodi:docname="stroke-join-bevel.svg"
   inkscape:version="1.4 (86a8ad7, 2024-10-11)"
   xmlns:inkscape="http://www.inkscape.org/namespaces/inkscape"
   xmlns:sodipodi="http://sodipodi.sourceforge.net/DTD/sodipodi-0.dtd"
   xmlns="http://www.w3.org/2000/svg"
   xmlns:svg="http://www.w3.org/2000/svg">
  <sodipodi:namedview
     id="namedview1"
     pagecolor="#ffffff"
     bordercolor="#000000"
     borderopacity="0.25"
     inkscape:showpageshadow="2"
     inkscape:pageopacity="0.0"
     inkscape:pagecheckerboard="0"
     inkscape:deskcolor="#d1d1d1"
     inkscape:zoom="55.136364"
     inkscape:cx="10.990932"
     inkscape:cy="11"
     inkscape:window-width="2560"
     inkscape:window-height="1494"
     inkscape:window-x="-11"
     inkscape:window-y="-11"
     inkscape:window-maximized="1"
     inkscape:current-layer="svg1" />
  <defs
     id="defs3051">
    <style
       type="text/css"
       id="current-color-scheme">
      .ColorScheme-Text {
        color:#232629;
      }
      </style>
  </defs>
  <path
     style="fill:#cbcbcb;fill-opacity:1;stroke:none"
     d="m9.242188 3l-4.242188 4.242188.007813.007813h-.007813v2.75 9h1 3v-1-8.34375l2.65625-2.65625h4.34375 1v-1-2-1h-1-5.00977-1.746093-.001953m.414063 1h1.333984 5.00977v2h-4-.753906-.003906l-3.242188 3.242188v.001953 8.755859h-2v-10.34375l3.65625-3.65625m1.34375 5v1 9h1 3v-1-5h1 1v-1-2-1h-1-1-3-1m1 1h3 1v2h-1-1v1 5h-2v-8"
     class="ColorScheme-Text"
     id="path1" />
</svg>
