<?xml version="1.0" encoding="UTF-8" standalone="no"?>
<svg
   viewBox="0 0 22 22"
   version="1.1"
   id="svg1"
   sodipodi:docname="stroke-cap-round.svg"
   inkscape:version="1.4 (86a8ad7, 2024-10-11)"
   xmlns:inkscape="http://www.inkscape.org/namespaces/inkscape"
   xmlns:sodipodi="http://sodipodi.sourceforge.net/DTD/sodipodi-0.dtd"
   xmlns="http://www.w3.org/2000/svg"
   xmlns:svg="http://www.w3.org/2000/svg">
  <sodipodi:namedview
     id="namedview1"
     pagecolor="#ffffff"
     bordercolor="#000000"
     borderopacity="0.25"
     inkscape:showpageshadow="2"
     inkscape:pageopacity="0.0"
     inkscape:pagecheckerboard="0"
     inkscape:deskcolor="#d1d1d1"
     inkscape:zoom="55.136364"
     inkscape:cx="10.990932"
     inkscape:cy="11"
     inkscape:window-width="2560"
     inkscape:window-height="1494"
     inkscape:window-x="-11"
     inkscape:window-y="-11"
     inkscape:window-maximized="1"
     inkscape:current-layer="svg1" />
  <defs
     id="defs3051">
    <style
       type="text/css"
       id="current-color-scheme">
      .ColorScheme-Text {
        color:#232629;
      }
      </style>
  </defs>
  <path
     style="fill:#cbcbcb;fill-opacity:1;stroke:none"
     d="m11 3c-2.769999 0-5 2.230001-5 5v6 5h1 3v-.09961-.175782-1.724608-8-1c0-.554.446-1 1-1 .554 0 1 .446 1 1v9 1 .724609.175782.09961h1 2 1v-1-9-1c0-2.77-2.230001-5-5-5m0 1c2.215999 0 4 1.784001 4 4v6 2.982422 1.017578h-1.021484-.978516v-.558594-8.441406-1c0-1.107999-.892001-2-2-2-1.107999 0-2 .892001-2 2v9 1h-2v-1.017578-2.982422-5-1c0-2.215999 1.784001-4 4-4"
     class="ColorScheme-Text"
     id="path1" />
</svg>
