<?xml version="1.0" encoding="UTF-8" standalone="no"?>
<svg
   viewBox="0 0 22 22"
   version="1.1"
   id="svg1"
   sodipodi:docname="stroke-join-round.svg"
   inkscape:version="1.4 (86a8ad7, 2024-10-11)"
   xmlns:inkscape="http://www.inkscape.org/namespaces/inkscape"
   xmlns:sodipodi="http://sodipodi.sourceforge.net/DTD/sodipodi-0.dtd"
   xmlns="http://www.w3.org/2000/svg"
   xmlns:svg="http://www.w3.org/2000/svg">
  <sodipodi:namedview
     id="namedview1"
     pagecolor="#ffffff"
     bordercolor="#000000"
     borderopacity="0.25"
     inkscape:showpageshadow="2"
     inkscape:pageopacity="0.0"
     inkscape:pagecheckerboard="0"
     inkscape:deskcolor="#d1d1d1"
     inkscape:zoom="55.136364"
     inkscape:cx="10.990932"
     inkscape:cy="11"
     inkscape:window-width="2560"
     inkscape:window-height="1494"
     inkscape:window-x="-11"
     inkscape:window-y="-11"
     inkscape:window-maximized="1"
     inkscape:current-layer="svg1" />
  <defs
     id="defs3051">
    <style
       type="text/css"
       id="current-color-scheme">
      .ColorScheme-Text {
        color:#232629;
      }
      </style>
  </defs>
  <path
     style="fill:#cbcbcb;fill-opacity:1;stroke:none"
     d="m7 3c-1.108008 0-2 .891992-2 2v2 3 9h1 3v-1-8-3h1 3 3 1v-1-2-1h-1-6-3m0 1h3 6v2h-3-3-1-1v1 3 8h-2v-8-3-.275391-1.724609c0-.554.446-1 1-1m4 5v1 9h1 3v-1-5h1 1v-1-2-1h-1-1-2-2m1 1h3 1v2h-1-1v1 5h-2v-8"
     class="ColorScheme-Text"
     id="path1" />
</svg>
